<?xml version="1.0" encoding="UTF-8"?>
<svg xmlns="http://www.w3.org/2000/svg" xmlns:xlink="http://www.w3.org/1999/xlink" width="50px" height="50px" viewBox="0 0 50 50" version="1.1">
<defs>
<linearGradient id="linear0" gradientUnits="userSpaceOnUse" x1="0" y1="1" x2="1" y2="0" gradientTransform="matrix(50,0,0,50,0,0)">
<stop offset="0" style="stop-color:rgb(74.117647%,3.137255%,8.627451%);stop-opacity:1;"/>
<stop offset="1" style="stop-color:rgb(100%,32.156863%,32.156863%);stop-opacity:1;"/>
</linearGradient>
</defs>
<g id="surface1">
<rect x="0" y="0" width="50" height="50" style="fill:url(#linear0);stroke:none;"/>
<path style=" stroke:none;fill-rule:evenodd;fill:rgb(100%,100%,100%);fill-opacity:1;" d="M 29.375 26.757812 C 29.363281 27.894531 29.039062 31.449219 25.625 31.835938 L 25.625 18.148438 L 29.375 19.746094 Z M 20.625 26.726562 L 20.625 19.746094 L 24.375 18.148438 L 24.375 31.835938 C 20.960938 31.445312 20.636719 27.863281 20.625 26.726562 Z M 24.753906 16.628906 L 19.753906 18.757812 C 19.523438 18.855469 19.375 19.082031 19.375 19.332031 L 19.375 26.734375 C 19.410156 29.683594 20.902344 33.125 25 33.125 C 29.097656 33.125 30.589844 29.703125 30.625 26.765625 L 30.625 19.332031 C 30.625 19.082031 30.476562 18.855469 30.246094 18.757812 L 25.246094 16.628906 C 25.089844 16.5625 24.910156 16.5625 24.753906 16.628906 Z M 31.875 26.765625 C 31.875 27.074219 31.777344 34.375 25 34.375 C 18.222656 34.375 18.125 27.054688 18.125 26.742188 L 18.125 18.09375 L 25 15.164062 L 31.875 18.09375 Z M 32.746094 17.105469 L 25.246094 13.910156 C 25.089844 13.84375 24.910156 13.84375 24.753906 13.910156 L 17.253906 17.105469 C 17.023438 17.203125 16.875 17.429688 16.875 17.679688 L 16.875 26.742188 C 16.875 26.832031 16.96875 35.625 25 35.625 C 33.03125 35.625 33.125 26.855469 33.125 26.765625 L 33.125 17.679688 C 33.125 17.429688 32.976562 17.203125 32.746094 17.105469 Z M 41.25 27.691406 L 39.109375 27.570312 C 38.824219 27.554688 38.53125 27.757812 38.464844 28.054688 C 38.121094 29.585938 37.523438 31.03125 36.683594 32.359375 C 36.519531 32.621094 36.566406 32.957031 36.796875 33.160156 L 38.394531 34.585938 L 34.585938 38.394531 L 33.164062 36.800781 C 32.960938 36.570312 32.621094 36.527344 32.363281 36.6875 C 31.039062 37.527344 29.589844 38.128906 28.054688 38.472656 C 27.757812 38.542969 27.550781 38.8125 27.570312 39.121094 L 27.691406 41.25 L 22.308594 41.25 L 22.429688 39.117188 C 22.449219 38.8125 22.242188 38.539062 21.945312 38.472656 C 20.417969 38.125 18.96875 37.527344 17.636719 36.683594 C 17.378906 36.523438 17.039062 36.570312 16.835938 36.796875 L 15.414062 38.394531 L 11.605469 34.585938 L 13.203125 33.164062 C 13.429688 32.960938 13.476562 32.621094 13.3125 32.363281 C 12.476562 31.035156 11.875 29.585938 11.53125 28.058594 C 11.464844 27.757812 11.183594 27.554688 10.886719 27.570312 L 8.75 27.691406 L 8.75 22.308594 L 10.890625 22.429688 C 11.179688 22.441406 11.46875 22.242188 11.539062 21.945312 C 11.882812 20.417969 12.484375 18.972656 13.324219 17.644531 C 13.484375 17.386719 13.4375 17.046875 13.210938 16.84375 L 11.605469 15.414062 L 15.414062 11.605469 L 16.84375 13.207031 C 17.046875 13.4375 17.386719 13.484375 17.644531 13.320312 C 18.96875 12.484375 20.417969 11.886719 21.941406 11.542969 C 22.242188 11.472656 22.449219 11.203125 22.429688 10.898438 L 22.308594 8.75 L 27.691406 8.75 L 27.570312 10.898438 C 27.550781 11.203125 27.757812 11.476562 28.054688 11.542969 C 29.582031 11.890625 31.027344 12.488281 32.355469 13.324219 C 32.609375 13.488281 32.949219 13.441406 33.152344 13.210938 L 34.585938 11.605469 L 38.394531 15.414062 L 36.792969 16.84375 C 36.5625 17.046875 36.515625 17.382812 36.679688 17.640625 C 37.515625 18.96875 38.117188 20.414062 38.464844 21.945312 C 38.53125 22.242188 38.824219 22.441406 39.109375 22.429688 L 41.25 22.308594 Z M 42.304688 21.191406 C 42.179688 21.074219 42.007812 21.011719 41.839844 21.023438 L 39.558594 21.152344 C 39.210938 19.84375 38.695312 18.597656 38.011719 17.429688 L 39.71875 15.90625 C 39.847656 15.789062 39.925781 15.628906 39.929688 15.457031 C 39.933594 15.285156 39.867188 15.117188 39.746094 14.996094 L 35.003906 10.253906 C 34.882812 10.132812 34.707031 10.066406 34.542969 10.070312 C 34.371094 10.078125 34.210938 10.152344 34.09375 10.28125 L 32.566406 11.992188 C 31.398438 11.3125 30.152344 10.792969 28.847656 10.449219 L 28.976562 8.160156 C 28.988281 7.988281 28.925781 7.820312 28.808594 7.695312 C 28.691406 7.570312 28.527344 7.5 28.355469 7.5 L 21.644531 7.5 C 21.472656 7.5 21.308594 7.570312 21.191406 7.695312 C 21.074219 7.820312 21.011719 7.988281 21.023438 8.160156 L 21.152344 10.449219 C 19.847656 10.792969 18.597656 11.308594 17.429688 11.988281 L 15.90625 10.28125 C 15.789062 10.152344 15.628906 10.078125 15.457031 10.070312 C 15.296875 10.066406 15.117188 10.132812 14.996094 10.253906 L 10.253906 14.996094 C 10.132812 15.117188 10.066406 15.285156 10.070312 15.457031 C 10.074219 15.628906 10.152344 15.789062 10.28125 15.90625 L 11.988281 17.429688 C 11.308594 18.601562 10.789062 19.847656 10.445312 21.152344 L 8.160156 21.023438 C 7.992188 21.011719 7.820312 21.074219 7.695312 21.191406 C 7.570312 21.308594 7.5 21.472656 7.5 21.644531 L 7.5 28.351562 C 7.5 28.523438 7.570312 28.691406 7.695312 28.808594 C 7.820312 28.925781 7.992188 28.984375 8.160156 28.976562 L 10.4375 28.847656 C 10.78125 30.15625 11.300781 31.40625 11.980469 32.578125 L 10.28125 34.09375 C 10.152344 34.210938 10.074219 34.371094 10.070312 34.542969 C 10.066406 34.714844 10.132812 34.882812 10.253906 35.003906 L 14.996094 39.746094 C 15.117188 39.867188 15.292969 39.9375 15.457031 39.929688 C 15.628906 39.921875 15.792969 39.847656 15.90625 39.71875 L 17.421875 38.019531 C 18.59375 38.703125 19.84375 39.21875 21.152344 39.566406 L 21.023438 41.839844 C 21.011719 42.011719 21.074219 42.179688 21.191406 42.304688 C 21.308594 42.429688 21.472656 42.5 21.644531 42.5 L 28.355469 42.5 C 28.527344 42.5 28.691406 42.429688 28.808594 42.304688 C 28.925781 42.179688 28.988281 42.011719 28.976562 41.839844 L 28.847656 39.566406 C 30.15625 39.222656 31.410156 38.703125 32.578125 38.019531 L 34.09375 39.71875 C 34.207031 39.847656 34.371094 39.921875 34.542969 39.929688 C 34.710938 39.9375 34.882812 39.867188 35.003906 39.746094 L 39.746094 35.003906 C 39.867188 34.882812 39.933594 34.714844 39.929688 34.542969 C 39.925781 34.371094 39.847656 34.210938 39.71875 34.09375 L 38.015625 32.574219 C 38.699219 31.402344 39.214844 30.152344 39.558594 28.847656 L 41.839844 28.976562 C 42.007812 28.984375 42.179688 28.925781 42.304688 28.808594 C 42.429688 28.691406 42.5 28.523438 42.5 28.351562 L 42.5 21.644531 C 42.5 21.472656 42.429688 21.308594 42.304688 21.191406 Z M 42.304688 21.191406 "/>
</g>
</svg>
