<?xml version="1.0" encoding="UTF-8"?>
<svg width="28px" height="28px" viewBox="0 0 28 28" version="1.1" xmlns="http://www.w3.org/2000/svg" xmlns:xlink="http://www.w3.org/1999/xlink">
    <!-- Generator: Sketch 56.3 (81716) - https://sketch.com -->
    <title>aws_rds</title>
    <desc>Created with Sketch.</desc>
    <g id="aws_rds" stroke="none" stroke-width="1" fill="none" fill-rule="evenodd">
        <g id="Group-5-Copy" transform="translate(4.000000, 4.000000)">
            <polyline id="Fill-1" fill="#3469A3" points="19.0571345 4.68215583 16.6647294 2.12658228 13.2911392 10.5288705 16.6647294 18.9256303 19.0571345 16.3752942 19.0571345 4.68215583"></polyline>
            <polyline id="Fill-2" fill="#518ABB" points="12.4147547 20.9502911 16.6014636 18.8710325 16.6014636 2.07285734 12.4147547 3.55271368e-14 7.44303797 10.4751456 12.4147547 20.9502911"></polyline>
            <polyline id="Fill-3" fill="#3469A3" points="6.51265823 20.9497092 12.4936709 20.9497092 12.4936709 2.13162821e-14 6.51265823 2.13162821e-14 2.92405063 10.4748546 6.51265823 20.9497092"></polyline>
            <polyline id="Fill-4" fill="#285285" points="2.38157278 18.8707415 6.56828165 20.9502911 6.56828165 3.55271368e-14 2.38157278 2.07285734 0.53164557 10.4751456 2.38157278 18.8707415"></polyline>
            <polyline id="Fill-5" fill="#21415E" points="-8.8817842e-16 16.3750033 2.39240506 18.9244665 2.39240506 2.12658228 -8.8817842e-16 4.68186486 -8.8817842e-16 16.3750033"></polyline>
        </g>
    </g>
</svg>